<svg xmlns="http://www.w3.org/2000/svg" style="display:none">
  <style>:root{--pine: #123323;--black: #11100e;--paper: #fff9ec;--rust: #a33b19;--gold: #f5b91f;--white: #ffffff;}</style>
  <symbol id="icon-phone-sharp" viewBox="0 0 64 64">
    <path d="M23 11c-4 1-7 5-7 9 0 17 16 32 33 32 4 0 8-3 9-7l-2-12-12-3-6 6c-5-3-8-6-11-11l6-6-3-12-7 4z" fill="var(--rust)" opacity=".9"></path>
      <path d="M19 8c-4 1-7 5-7 9 0 17 16 32 33 32 4 0 8-3 9-7l-2-12-12-3-6 6c-5-3-8-6-11-11l6-6-3-12-7 4z" fill="var(--gold)" stroke="var(--black)" stroke-width="4" stroke-linejoin="round"></path>
      <path d="M18 16c2 12 12 22 24 26" fill="none" stroke="var(--paper)" stroke-width="3" stroke-linecap="round"></path>
  </symbol>
  <symbol id="icon-store-sharp" viewBox="0 0 64 64">
    <path d="M12 50h42v8H12z" fill="var(--rust)"></path>
      <path d="M10 46h42v8H10z" fill="var(--paper)" stroke="var(--black)" stroke-width="4" stroke-linejoin="round"></path>
      <path d="M15 46V29l12-12 12 12v17" fill="var(--gold)" stroke="var(--black)" stroke-width="4" stroke-linejoin="round"></path>
      <path d="M34 46V24l8-10 8 10v22" fill="var(--pine)" stroke="var(--black)" stroke-width="4" stroke-linejoin="round"></path>
      <path d="M17 31h20" stroke="var(--paper)" stroke-width="4" stroke-linecap="round"></path>
      <path d="M41 27h9" stroke="var(--gold)" stroke-width="4" stroke-linecap="round"></path>
  </symbol>
  <symbol id="icon-bag-sharp" viewBox="0 0 64 64">
    <path d="M18 18h34l4 36H15z" fill="var(--rust)" opacity=".95"></path>
      <path d="M13 15h34l4 36H10z" fill="var(--gold)" stroke="var(--black)" stroke-width="4" stroke-linejoin="round"></path>
      <path d="M22 20c0-8 4-12 11-12s11 4 11 12" fill="none" stroke="var(--black)" stroke-width="4" stroke-linecap="round"></path>
      <path d="M22 29h17" stroke="var(--paper)" stroke-width="4" stroke-linecap="round"></path>
      <path d="M22 38h11" stroke="var(--paper)" stroke-width="4" stroke-linecap="round"></path>
  </symbol>
  <symbol id="icon-menu-sharp" viewBox="0 0 64 64">
    <path d="M17 17h34v10H17zM17 31h34v10H17zM17 45h34v10H17z" fill="var(--rust)"></path>
      <path d="M13 13h34v10H13zM13 27h34v10H13zM13 41h34v10H13z" fill="var(--pine)" stroke="var(--black)" stroke-width="4" stroke-linejoin="round"></path>
      <path d="M19 18h20M19 32h20M19 46h20" stroke="var(--paper)" stroke-width="3" stroke-linecap="round"></path>
  </symbol>
  <symbol id="icon-arrow-sharp" viewBox="0 0 64 64">
    <path d="M12 35h29L30 46l7 7 23-23L37 7l-7 7 11 11H12z" fill="var(--rust)"></path>
      <path d="M8 31h29L26 42l7 7 23-23L33 3l-7 7 11 11H8z" fill="var(--gold)" stroke="var(--black)" stroke-width="4" stroke-linejoin="round"></path>
  </symbol>
  <symbol id="icon-map-sharp" viewBox="0 0 64 64">
    <path d="M36 60s18-20 18-34c0-12-8-21-22-21S10 14 10 26c0 14 18 34 18 34h8z" fill="var(--rust)"></path>
      <path d="M32 57S50 37 50 23C50 11 42 2 32 2S14 11 14 23c0 14 18 34 18 34z" fill="var(--gold)" stroke="var(--black)" stroke-width="4" stroke-linejoin="round"></path>
      <circle cx="32" cy="23" r="8" fill="var(--paper)" stroke="var(--black)" stroke-width="4"></circle>
  </symbol>
  <symbol id="icon-bridge-sharp" viewBox="0 0 64 64">
    <path d="M8 39h50v10H8z" fill="var(--rust)"></path>
      <path d="M6 34h50v10H6z" fill="var(--paper)" stroke="var(--black)" stroke-width="4" stroke-linejoin="round"></path>
      <path d="M10 34c7-14 35-14 42 0" fill="none" stroke="var(--pine)" stroke-width="5" stroke-linecap="round"></path>
      <path d="M15 34l8 10M25 34l8 10M35 34l8 10M45 34l8 10" stroke="var(--black)" stroke-width="3" stroke-linecap="round"></path>
      <path d="M7 52c5-4 10-4 15 0s10 4 15 0 10-4 15 0" fill="none" stroke="var(--gold)" stroke-width="4" stroke-linecap="round"></path>
  </symbol>
  <symbol id="icon-clock-sharp" viewBox="0 0 64 64">
    <circle cx="35" cy="35" r="24" fill="var(--rust)"></circle>
      <circle cx="30" cy="30" r="24" fill="var(--paper)" stroke="var(--black)" stroke-width="4"></circle>
      <path d="M30 15v17l13 7" fill="none" stroke="var(--pine)" stroke-width="5" stroke-linecap="round" stroke-linejoin="round"></path>
      <circle cx="30" cy="30" r="4" fill="var(--gold)" stroke="var(--black)" stroke-width="3"></circle>
  </symbol>
  <symbol id="icon-breakfast-sharp" viewBox="0 0 64 64">
    <ellipse cx="35" cy="42" rx="24" ry="12" fill="var(--rust)"></ellipse>
      <ellipse cx="30" cy="38" rx="24" ry="12" fill="var(--paper)" stroke="var(--black)" stroke-width="4"></ellipse>
      <circle cx="25" cy="36" r="9" fill="var(--white)" stroke="var(--black)" stroke-width="3"></circle>
      <circle cx="25" cy="36" r="4" fill="var(--gold)"></circle>
      <path d="M35 18h12v15c0 4-2 7-6 7s-6-3-6-7z" fill="var(--pine)" stroke="var(--black)" stroke-width="4" stroke-linejoin="round"></path>
      <path d="M36 24h10" stroke="var(--paper)" stroke-width="3" stroke-linecap="round"></path>
  </symbol>
  <symbol id="icon-sub-sharp" viewBox="0 0 64 64">
    <path d="M12 39c6 13 40 13 46-1l-4 9c-6 10-34 10-42 0z" fill="var(--rust)"></path>
      <path d="M8 34c6 13 40 13 46-1l-4 9c-6 10-34 10-42 0z" fill="var(--gold)" stroke="var(--black)" stroke-width="4" stroke-linejoin="round"></path>
      <path d="M11 31c8-14 35-18 43-4 2 4 1 7-2 9-9 6-35 7-43 1-3-2-2-4 2-6z" fill="var(--paper)" stroke="var(--black)" stroke-width="4" stroke-linejoin="round"></path>
      <path d="M17 34c8 3 19 3 29-1" stroke="var(--pine)" stroke-width="4" stroke-linecap="round"></path>
      <circle cx="23" cy="27" r="2" fill="var(--rust)"></circle>
      <circle cx="34" cy="24" r="2" fill="var(--rust)"></circle>
      <circle cx="44" cy="27" r="2" fill="var(--rust)"></circle>
  </symbol>
  <symbol id="icon-dinner-sharp" viewBox="0 0 64 64">
    <circle cx="35" cy="36" r="22" fill="var(--rust)"></circle>
      <circle cx="30" cy="31" r="22" fill="var(--paper)" stroke="var(--black)" stroke-width="4"></circle>
      <circle cx="30" cy="31" r="11" fill="var(--gold)" stroke="var(--black)" stroke-width="4"></circle>
      <path d="M7 13v37M13 13v37M19 13v37M7 25h12" stroke="var(--pine)" stroke-width="4" stroke-linecap="round"></path>
      <path d="M51 12c5 7 4 15-2 21v17" fill="none" stroke="var(--pine)" stroke-width="5" stroke-linecap="round"></path>
  </symbol>
</svg>
