<svg xmlns="http://www.w3.org/2000/svg" viewBox="0 0 64 64">
  <style>:root{--pine: #123323;--black: #11100e;--paper: #fff9ec;--rust: #a33b19;--gold: #f5b91f;--white: #ffffff;}</style>
  <path d="M12 39c6 13 40 13 46-1l-4 9c-6 10-34 10-42 0z" fill="var(--rust)"></path>
      <path d="M8 34c6 13 40 13 46-1l-4 9c-6 10-34 10-42 0z" fill="var(--gold)" stroke="var(--black)" stroke-width="4" stroke-linejoin="round"></path>
      <path d="M11 31c8-14 35-18 43-4 2 4 1 7-2 9-9 6-35 7-43 1-3-2-2-4 2-6z" fill="var(--paper)" stroke="var(--black)" stroke-width="4" stroke-linejoin="round"></path>
      <path d="M17 34c8 3 19 3 29-1" stroke="var(--pine)" stroke-width="4" stroke-linecap="round"></path>
      <circle cx="23" cy="27" r="2" fill="var(--rust)"></circle>
      <circle cx="34" cy="24" r="2" fill="var(--rust)"></circle>
      <circle cx="44" cy="27" r="2" fill="var(--rust)"></circle>
</svg>
